<svg xmlns="http://www.w3.org/2000/svg" viewBox="0 0 128 128" width="128" height="128">
  <defs>
    <linearGradient id="bg" x1="0%" y1="0%" x2="100%" y2="100%">
      <stop offset="0%" style="stop-color:#22c55e"/>
      <stop offset="100%" style="stop-color:#166534"/>
    </linearGradient>
  </defs>
  <!-- Rounded square background -->
  <rect width="128" height="128" rx="24" fill="url(#bg)"/>
  <!-- Leaf shape -->
  <g transform="translate(64, 64)">
    <!-- Main leaf -->
    <path d="M-8 28 C-8 28 -30 -5 -10 -30 C5 -48 30 -42 30 -42 C30 -42 35 -18 20 2 C8 18 -8 28 -8 28Z"
          fill="white" opacity="0.95"/>
    <!-- Leaf vein -->
    <path d="M-4 22 C2 10 10 -5 22 -32"
          stroke="rgba(22,101,52,0.4)" stroke-width="2.5" fill="none" stroke-linecap="round"/>
    <path d="M2 12 C8 6 14 -2 14 -2"
          stroke="rgba(22,101,52,0.3)" stroke-width="1.5" fill="none" stroke-linecap="round"/>
    <path d="M-2 16 C-8 8 -12 2 -12 2"
          stroke="rgba(22,101,52,0.3)" stroke-width="1.5" fill="none" stroke-linecap="round"/>
    <!-- Stem -->
    <path d="M-8 28 C-12 34 -18 38 -18 38"
          stroke="white" stroke-width="3" fill="none" stroke-linecap="round" opacity="0.95"/>
  </g>
</svg>
